<svg width="202" height="46" viewBox="0 0 202 46" fill="none" xmlns="http://www.w3.org/2000/svg">
<g clip-path="url(#clip0_252_3671)">
<path fill-rule="evenodd" clip-rule="evenodd" d="M0 45.7984H58.6225V16.4888L29.3097 45.7984L0 16.4888V45.7984Z" fill="#00CD69"/>
<path fill-rule="evenodd" clip-rule="evenodd" d="M29.3097 32.9742C38.4158 32.9742 45.7984 25.5916 45.7984 16.4855C45.7984 7.37941 38.4158 0 29.3097 0C20.2036 0 12.8242 7.38256 12.8242 16.4887C12.8242 25.5948 20.2068 32.9773 29.3129 32.9773" fill="#FFAA46"/>
<path d="M80.9152 0.834961H94.2466V5.19266H85.7991V8.38767H93.481V12.7454H85.7991V19.3181H80.9152V0.834961Z" fill="black"/>
<path d="M169.074 0.0439453H173.564V19.318H169.074V0.0439453ZM162.341 8.36232C163.425 6.80578 165.06 6.14409 167.303 6.38356V10.7413C166.405 10.5554 165.536 10.5837 164.716 10.82C163.872 11.0847 163.264 11.5069 162.867 12.115V19.3243H158.377V6.64508H162.338V8.36232H162.341ZM152.018 11.6361C152.097 11.2139 151.993 10.7381 151.7 10.2371C151.382 9.73612 150.827 9.49665 150.036 9.49665C149.403 9.49665 148.874 9.68255 148.426 10.0764C147.979 10.4734 147.768 10.9744 147.768 11.633H152.018V11.6361ZM143.278 12.9815C143.278 11.7937 143.489 10.7633 143.911 9.8401C144.333 8.94209 144.888 8.22999 145.575 7.72899C146.262 7.228 146.974 6.85619 147.714 6.61987C148.455 6.38356 149.192 6.25122 149.932 6.25122C150.988 6.25122 151.94 6.40876 152.759 6.72701C153.578 7.04525 154.237 7.46747 154.738 7.99367C155.213 8.52302 155.61 9.12799 155.9 9.81489C156.19 10.527 156.348 11.2422 156.348 12.0079C156.322 12.7736 156.241 13.5645 156.111 14.3301H147.821C148.297 15.6251 149.643 16.2837 151.861 16.2837C153.206 16.2837 154.422 16.0726 155.503 15.6756V19.0029C154.158 19.4787 152.598 19.715 150.802 19.715C148.637 19.715 146.841 19.1069 145.417 17.919C143.99 16.7311 143.278 15.0926 143.278 12.9815ZM125.507 19.318H121.017V6.64508H124.977V7.99052C125.374 7.54309 125.9 7.11772 126.616 6.77742C127.303 6.43397 128.068 6.24807 128.888 6.24807C130.576 6.24807 131.818 6.82783 132.637 7.99052C133.879 6.82783 135.224 6.24807 136.677 6.24807C137.575 6.24807 138.34 6.40561 138.999 6.72386C139.657 7.0673 140.133 7.48952 140.451 8.01888C140.77 8.57343 141.006 9.10278 141.138 9.60378C141.271 10.1331 141.349 10.6593 141.349 11.1887V19.3212H136.859V11.5857C136.859 11.1099 136.727 10.7413 136.462 10.4766C136.172 10.2119 135.829 10.0796 135.407 10.0796C134.72 10.0796 134.112 10.3442 133.557 10.8988V19.3212H129.067V11.5857C129.067 11.1099 128.935 10.7413 128.67 10.4766C128.38 10.2119 128.037 10.0796 127.615 10.0796C126.795 10.0796 126.083 10.4482 125.503 11.1887V19.3212L125.507 19.318ZM114.311 8.35917C115.395 6.80263 117.031 6.14094 119.274 6.38041V10.7381C118.376 10.5522 117.506 10.5806 116.687 10.8169C115.843 11.0816 115.235 11.5038 114.838 12.1119V19.3212H110.348V6.64508H114.308V8.36232L114.311 8.35917ZM103.989 11.633C104.068 11.2107 103.964 10.735 103.671 10.234C103.353 9.73296 102.798 9.4935 102.007 9.4935C101.374 9.4935 100.845 9.6794 100.397 10.0733C99.9497 10.4703 99.7386 10.9713 99.7386 11.6298H103.989V11.633ZM95.2485 12.9784C95.2485 11.7905 95.4596 10.7602 95.8819 9.83694C96.3041 8.93894 96.8586 8.22683 97.5455 7.72584C98.2324 7.22485 98.9445 6.85304 99.685 6.61672C100.425 6.38041 101.163 6.24807 101.903 6.24807C102.959 6.24807 103.91 6.40561 104.73 6.72386C105.549 7.0421 106.207 7.46432 106.708 7.99052C107.184 8.51987 107.581 9.12484 107.871 9.81174C108.161 10.5238 108.318 11.2391 108.318 12.0048C108.293 12.7704 108.211 13.5613 108.082 14.327H99.7921C100.268 15.622 101.613 16.2805 103.832 16.2805C105.177 16.2805 106.393 16.0694 107.474 15.6724V18.9998C106.129 19.4755 104.569 19.7119 102.773 19.7119C100.608 19.7119 98.8122 19.1037 97.388 17.9159C95.9606 16.728 95.2485 15.0895 95.2485 12.9784Z" fill="black"/>
<path d="M180.985 10.8424C180.509 11.4505 180.273 12.1626 180.273 12.9818C180.273 13.8011 180.509 14.5132 180.985 15.1213C181.432 15.7294 182.119 16.0193 182.992 16.0193C183.572 16.0193 184.101 15.8618 184.548 15.5435C184.996 15.2536 185.339 14.885 185.55 14.4344V11.5293C185.339 11.0818 184.996 10.71 184.548 10.3949C184.101 10.1051 183.572 9.94752 182.992 9.94752C182.119 9.94752 181.435 10.2374 180.985 10.8455M186.08 17.6042C185.736 18.2123 185.182 18.7133 184.47 19.1103C183.729 19.5073 182.831 19.7185 181.775 19.7185C180.72 19.7185 179.847 19.5326 179.031 19.1387C178.212 18.7417 177.578 18.2407 177.103 17.5821C176.627 16.9236 176.258 16.2084 176.019 15.4175C175.782 14.6518 175.65 13.8326 175.65 12.9881C175.65 12.1437 175.782 11.3245 176.019 10.5336C176.255 9.76792 176.627 9.05581 177.103 8.39412C177.578 7.73243 178.212 7.23144 179.031 6.83758C179.85 6.44056 180.748 6.25781 181.775 6.25781C182.803 6.25781 183.729 6.46892 184.47 6.86594C185.182 7.26295 185.736 7.76394 186.08 8.37207V6.65483H190.04V19.3183H186.08V17.6011V17.6042Z" fill="black"/>
<path d="M196.695 8.36244C197.779 6.8059 199.414 6.14421 201.658 6.38368V10.7414C200.76 10.5555 199.89 10.5838 199.071 10.8201C198.226 11.0848 197.618 11.507 197.221 12.1152V19.3244H192.731V6.6452H196.692V8.36244H196.695Z" fill="black"/>
<path d="M98.2987 27.1987H100.202V45.6819H97.9836V31.3989L91.3541 41.3242H89.9835L83.354 31.3989V45.6819H81.1357V27.1987H83.0389L90.6672 38.605L98.2987 27.1987Z" fill="black"/>
<path d="M106.828 35.9391C105.955 36.8119 105.533 37.9462 105.533 39.3452C105.533 40.7442 105.955 41.8785 106.828 42.7513C107.673 43.6241 108.728 44.0463 109.998 44.0463C111.082 44.0463 112.03 43.7564 112.849 43.1483C113.669 42.5402 114.274 41.8029 114.671 40.9301V37.7603C114.274 36.8875 113.669 36.1502 112.849 35.542C112.03 34.9339 111.082 34.644 109.998 34.644C108.731 34.644 107.676 35.0663 106.828 35.9391ZM114.882 43.5705C113.458 45.1806 111.74 45.9999 109.758 45.9999C107.937 45.9999 106.431 45.3666 105.243 44.0999C104.03 42.8332 103.422 41.2483 103.422 39.3483C103.422 37.4483 104.03 35.8634 105.243 34.5968C106.431 33.3301 107.937 32.6968 109.758 32.6968C111.74 32.6968 113.454 33.516 114.882 35.1261V33.015H116.782V45.6879H114.882V43.5768V43.5705Z" fill="black"/>
<path d="M135.29 29.0735L137.376 28.5442V33.0058H142.446V34.9594H137.376V41.507C137.376 42.4302 137.587 43.0919 138.038 43.4605C138.46 43.8292 139.147 44.0151 140.099 44.0151C141.05 44.0151 141.948 43.8292 142.897 43.4353V45.3889C141.813 45.7859 140.678 45.9686 139.49 45.9686C138.195 45.9686 137.193 45.6252 136.428 44.9131C135.662 44.2262 135.293 43.2242 135.293 41.8756V34.9594H132.918V33.0058H135.293V29.0704L135.29 29.0735ZM132.413 45.6819H129.931L125.283 40.2435H122.8V45.6819H120.689V27.1987H122.8V38.2868H125.362L129.376 33.0058H131.831L127.025 39.3171L132.41 45.6819H132.413Z" fill="black"/>
<path d="M147.806 35.9391C146.933 36.8119 146.511 37.9462 146.511 39.3452C146.511 40.7442 146.933 41.8785 147.806 42.7513C148.65 43.6241 149.706 44.0463 150.975 44.0463C152.059 44.0463 153.008 43.7564 153.827 43.1483C154.646 42.5402 155.251 41.8029 155.648 40.9301V37.7603C155.251 36.8875 154.646 36.1502 153.827 35.542C153.008 34.9339 152.059 34.644 150.975 34.644C149.709 34.644 148.653 35.0663 147.806 35.9391ZM155.859 43.5705C154.432 45.1806 152.718 45.9999 150.736 45.9999C148.915 45.9999 147.409 45.3666 146.221 44.0999C145.008 42.8332 144.399 41.2483 144.399 39.3483C144.399 37.4483 145.008 35.8634 146.221 34.5968C147.409 33.3301 148.915 32.6968 150.736 32.6968C152.718 32.6968 154.432 33.516 155.859 35.1261V33.015H157.759V45.6879H155.859V43.5768V43.5705Z" fill="black"/>
<path d="M180.15 27.9644C180.414 28.2007 180.547 28.5441 180.547 28.9663C180.547 29.3886 180.414 29.7068 180.15 29.9431C179.885 30.1794 179.57 30.3118 179.173 30.3118C178.776 30.3118 178.461 30.1794 178.196 29.9431C177.931 29.7068 177.799 29.3886 177.799 28.9663C177.799 28.5441 177.931 28.2007 178.196 27.9644C178.461 27.728 178.776 27.6209 179.173 27.6209C179.57 27.6209 179.885 27.728 180.15 27.9644ZM180.228 45.6819H178.117V33.0089H180.228V45.6819ZM171.648 42.7515C172.493 41.8787 172.915 40.7444 172.915 39.3454C172.915 37.9464 172.493 36.8121 171.648 35.9393C170.776 35.0665 169.72 34.6443 168.453 34.6443C167.37 34.6443 166.421 34.9341 165.602 35.5423C164.783 36.1504 164.178 36.8877 163.781 37.7605V40.9303C164.178 41.8031 164.783 42.5404 165.602 43.1485C166.421 43.7567 167.37 44.0465 168.453 44.0465C169.72 44.0465 170.776 43.6243 171.648 42.7515ZM161.666 27.1987H163.777V34.9089C165.044 33.4312 166.683 32.6907 168.69 32.6907C170.511 32.6907 172.017 33.324 173.23 34.5907C174.418 35.8574 175.026 37.4423 175.026 39.3423C175.026 41.2422 174.418 42.8272 173.23 44.0938C172.017 45.3605 170.511 45.9938 168.69 45.9938C166.711 45.9938 164.994 45.1746 163.566 43.5645V45.6756H161.666V27.1924V27.1987Z" fill="black"/>
</g>
<defs>
<clipPath id="clip0_252_3671">
<rect width="201.658" height="46" fill="white"/>
</clipPath>
</defs>
</svg>
